<svg xmlns="http://www.w3.org/2000/svg" viewBox="0 0 256 256" role="img" aria-label="Network Adapter Monitor icon">
  <defs>
    <linearGradient id="bg" x1="0" y1="0" x2="1" y2="1">
      <stop offset="0" stop-color="#11a3eb"/>
      <stop offset="1" stop-color="#0e56be"/>
    </linearGradient>
  </defs>
  <rect x="16" y="16" width="224" height="224" rx="47" fill="url(#bg)"/>
  <rect x="24" y="24" width="208" height="208" rx="39" fill="none" stroke="#ffffff" stroke-opacity="0.18" stroke-width="2.5"/>
  <polyline points="44,78 82,78 103,53 127,94 153,54 178,78 214,78" fill="none" stroke="#22c55e" stroke-width="16" stroke-linecap="round" stroke-linejoin="round"/>
  <polyline points="44,78 82,78 103,53 127,94 153,54 178,78 214,78" fill="none" stroke="#bbf7d0" stroke-width="6" stroke-linecap="round" stroke-linejoin="round"/>
  <rect x="48" y="100" width="160" height="78" rx="22" fill="#ffffff" fill-opacity="0.95"/>
  <rect x="68" y="121" width="62" height="37" rx="8" fill="#094d82" fill-opacity="0.92"/>
  <rect x="143" y="120" width="43" height="38" rx="8" fill="#094d82" fill-opacity="0.92"/>
  <g fill="#60d3ff">
    <rect x="75" y="132" width="6" height="18" rx="2"/>
    <rect x="88" y="132" width="6" height="18" rx="2"/>
    <rect x="101" y="132" width="6" height="18" rx="2"/>
    <rect x="114" y="132" width="6" height="18" rx="2"/>
    <rect x="151" y="132" width="5" height="18" rx="2"/>
    <rect x="165" y="132" width="5" height="18" rx="2"/>
    <rect x="179" y="132" width="5" height="18" rx="2"/>
  </g>
  <path d="M80 199 L118 212 H138 L180 199" fill="none" stroke="#ffffff" stroke-opacity="0.82" stroke-width="8" stroke-linecap="round" stroke-linejoin="round"/>
  <circle cx="70" cy="198" r="10" fill="#ffffff" fill-opacity="0.9"/>
  <circle cx="128" cy="216" r="11" fill="#ffffff" fill-opacity="0.92"/>
  <circle cx="190" cy="198" r="10" fill="#ffffff" fill-opacity="0.9"/>
  <circle cx="210.5" cy="125.5" r="13.5" fill="#22c55e" stroke="#ffffff" stroke-opacity="0.9" stroke-width="5"/>
</svg>
